<?xml version="1.0" standalone="no"?>
<!DOCTYPE svg PUBLIC "-//W3C//DTD SVG 20010904//EN"
 "http://www.w3.org/TR/2001/REC-SVG-20010904/DTD/svg10.dtd">
<svg version="1.0" xmlns="http://www.w3.org/2000/svg"
 width="868.000000pt" height="868.000000pt" viewBox="0 0 868.000000 868.000000"
 preserveAspectRatio="xMidYMid meet">
<metadata>
Created by potrace 1.11, written by Peter Selinger 2001-2013
</metadata>
<g transform="translate(0.000000,868.000000) scale(0.100000,-0.100000)"
fill="#000000" stroke="none">
<path d="M4118 8675 c-1 -1 -50 -6 -108 -10 -58 -3 -116 -8 -130 -10 -14 -1
-46 -5 -70 -9 -25 -3 -65 -8 -90 -11 -39 -5 -122 -19 -235 -40 -26 -5 -180
-39 -225 -51 -69 -17 -172 -47 -251 -74 -52 -17 -102 -33 -113 -35 -10 -3 -24
-9 -32 -16 -8 -6 -14 -9 -14 -6 0 5 -39 -9 -135 -48 -11 -5 -22 -9 -25 -10 -3
-1 -18 -8 -35 -15 -16 -7 -32 -14 -35 -15 -35 -10 -235 -108 -242 -119 -4 -6
-8 -8 -8 -4 0 4 -36 -13 -80 -38 -44 -24 -83 -44 -86 -44 -2 0 -10 -5 -17 -10
-7 -6 -50 -33 -97 -61 -88 -52 -286 -184 -330 -219 -14 -11 -61 -48 -105 -82
-44 -34 -85 -67 -91 -73 -6 -5 -33 -28 -59 -50 -73 -61 -336 -318 -330 -323 4
-5 -28 -66 -73 -137 -14 -22 -56 -71 -93 -110 -38 -38 -75 -86 -84 -105 -9
-19 -40 -69 -71 -110 -30 -41 -62 -91 -70 -110 -9 -19 -27 -49 -40 -67 -13
-17 -24 -37 -24 -44 0 -7 -6 -20 -14 -28 -8 -9 -23 -32 -33 -51 -65 -117 -86
-150 -98 -160 -8 -7 -15 -21 -15 -32 0 -11 -9 -31 -20 -45 -11 -14 -20 -34
-20 -44 0 -16 -27 -85 -91 -229 -11 -25 -24 -71 -29 -104 -5 -32 -16 -68 -25
-80 -8 -11 -22 -31 -30 -42 -10 -13 -20 -61 -26 -120 -5 -55 -18 -148 -29
-209 -67 -379 -71 -463 -82 -1602 -1 -106 2 -156 10 -166 18 -21 59 -169 71
-252 28 -190 78 -426 129 -600 32 -110 183 -422 382 -790 29 -55 89 -171 132
-257 43 -87 83 -160 89 -163 5 -4 20 -27 33 -53 25 -49 102 -142 118 -142 5 0
36 -26 69 -57 33 -32 73 -66 89 -76 17 -11 30 -23 30 -28 0 -5 7 -9 15 -9 9 0
20 -11 26 -24 6 -13 22 -29 35 -35 13 -6 52 -32 87 -59 81 -63 125 -88 169
-96 20 -3 53 -20 73 -36 21 -17 47 -30 59 -30 12 0 39 -9 60 -21 27 -14 50
-19 73 -16 32 6 46 -6 21 -16 -7 -3 12 -5 42 -5 30 0 49 2 43 5 -18 7 -16 36
4 94 21 58 15 67 -54 80 -36 7 -56 18 -80 45 -39 41 -39 43 -13 93 17 35 172
184 261 252 27 21 45 53 86 150 28 68 57 154 64 191 11 62 11 69 -6 88 -23 25
-36 25 -65 0 -17 -15 -37 -20 -82 -20 -44 0 -58 -3 -58 -15 0 -17 -60 -36 -90
-28 -11 3 -28 -1 -38 -9 -9 -8 -46 -25 -81 -38 l-64 -24 -18 23 c-23 28 -24
44 -3 84 25 47 26 48 69 113 21 32 49 79 62 104 13 25 40 73 60 107 85 140
141 239 148 263 4 14 22 54 40 90 70 138 122 469 112 710 -5 129 -15 159 -71
206 -36 31 -71 89 -153 254 -26 52 -50 96 -53 98 -4 1 -42 28 -86 60 -43 32
-117 77 -164 100 -47 23 -110 60 -140 82 -74 53 -101 55 -60 3 11 -14 20 -30
20 -34 0 -15 -48 -10 -64 6 -8 8 -26 19 -40 25 -14 5 -41 30 -58 55 -18 25
-46 54 -63 64 -20 11 -42 40 -60 76 -26 54 -27 63 -22 149 9 142 44 244 142
416 8 14 28 55 45 92 32 69 66 101 103 96 50 -7 65 -121 22 -164 -22 -22 -23
-25 -7 -31 64 -23 94 -105 50 -137 l-23 -16 23 -16 c12 -9 22 -24 22 -34 0
-22 98 -130 118 -130 21 0 80 -37 128 -81 23 -20 55 -40 73 -44 19 -4 42 -21
59 -42 32 -42 157 -106 239 -123 64 -14 96 -10 218 24 50 14 107 25 128 25 75
1 137 50 108 85 -14 17 -16 48 -7 148 4 47 3 94 -4 118 -6 22 -14 134 -17 248
-10 365 -9 440 5 454 8 8 12 42 12 98 0 73 -4 91 -25 125 -15 25 -24 55 -25
82 0 79 -22 198 -45 248 -29 64 -60 142 -71 180 -9 28 -13 30 -61 33 l-52 3
-3 -33 c-4 -44 -39 -50 -77 -15 -24 23 -32 25 -114 22 -86 -3 -88 -2 -107 25
-11 16 -20 34 -20 42 0 26 49 158 63 173 8 8 18 36 22 62 7 45 20 82 34 93 10
7 57 109 69 146 6 17 23 51 38 75 33 50 64 116 64 133 0 6 17 33 38 58 20 26
57 80 82 119 32 51 59 80 93 101 26 17 50 40 53 52 8 32 90 110 147 141 33 17
64 25 98 25 29 0 65 8 87 19 20 10 64 22 97 26 33 4 68 12 77 17 12 6 28 3 50
-8 42 -22 64 -50 77 -100 6 -23 18 -47 27 -55 21 -17 101 -178 120 -240 8 -25
27 -63 42 -85 29 -41 124 -230 137 -274 4 -14 17 -43 28 -65 14 -28 21 -64 23
-121 3 -94 22 -134 81 -174 41 -28 55 -60 88 -200 11 -46 25 -80 36 -88 14
-10 19 -26 19 -65 0 -43 6 -60 35 -101 19 -27 35 -53 35 -57 0 -4 15 -41 34
-81 40 -87 42 -96 32 -126 -5 -16 -3 -29 6 -40 22 -26 52 -102 50 -126 -4 -44
18 -75 57 -81 74 -12 167 -39 197 -57 17 -10 39 -18 49 -18 10 0 43 -12 74
-27 59 -28 107 -32 236 -18 54 6 64 4 97 -19 22 -15 70 -31 115 -41 48 -9 113
-32 168 -60 50 -25 96 -45 103 -45 11 0 125 -110 166 -160 31 -38 56 -90 56
-117 0 -16 4 -33 9 -38 5 -6 14 -26 19 -45 6 -19 27 -75 48 -124 23 -56 36
-104 36 -130 -1 -37 40 -132 124 -286 7 -14 28 -59 45 -100 17 -41 40 -87 50
-102 12 -16 19 -43 19 -71 0 -33 7 -53 23 -74 13 -15 29 -48 36 -73 7 -25 23
-61 36 -80 13 -19 28 -55 34 -79 7 -32 22 -56 61 -92 28 -28 55 -61 60 -74 5
-14 25 -31 44 -39 19 -8 51 -30 72 -50 21 -20 41 -36 45 -36 3 0 18 -18 33
-40 33 -49 46 -51 46 -4 0 43 22 44 53 2 18 -23 18 -30 7 -57 -7 -17 -16 -28
-21 -25 -5 3 -9 -2 -9 -10 0 -12 10 -16 39 -16 22 0 43 5 46 10 7 12 51 3 80
-15 11 -7 36 -16 54 -20 20 -4 53 -25 78 -51 25 -24 70 -56 100 -71 31 -15 68
-39 82 -53 14 -14 43 -38 65 -54 21 -16 68 -58 105 -93 36 -35 78 -70 92 -78
35 -19 91 -110 94 -154 2 -33 -19 -71 -39 -71 -10 0 -24 -12 -79 -65 -18 -17
-49 -39 -70 -48 -20 -10 -47 -29 -60 -42 -17 -19 -36 -26 -81 -30 -32 -3 -67
-10 -76 -15 -10 -5 -21 -6 -25 -2 -5 4 -5 1 -1 -6 10 -18 -15 -39 -55 -46 -29
-5 -150 -45 -211 -71 -10 -4 -18 -13 -18 -20 0 -7 -10 -15 -23 -19 -12 -3 -34
-18 -49 -33 -23 -24 -27 -38 -28 -93 -1 -36 3 -83 9 -105 27 -98 51 -247 51
-321 0 -44 4 -84 9 -90 5 -5 5 -35 -1 -72 -8 -51 -7 -70 5 -95 22 -45 26 -82
32 -255 2 -84 7 -157 10 -162 3 -5 22 -12 43 -16 20 -4 49 -13 64 -20 39 -20
91 -17 121 6 14 11 29 20 33 20 5 0 26 18 49 39 37 37 55 51 145 116 42 29
159 142 215 207 46 53 207 227 280 303 128 133 158 170 183 223 15 32 51 86
80 120 29 35 59 78 68 95 34 72 57 113 73 132 10 11 46 65 80 120 35 55 73
109 86 120 12 11 46 65 75 120 29 55 61 115 72 132 11 18 30 61 43 95 49 134
123 308 161 379 13 26 24 52 24 58 0 6 14 40 30 74 17 35 30 74 30 86 0 23 32
111 76 208 13 29 28 83 34 120 6 38 17 80 25 95 28 57 43 167 78 558 6 69 10
283 9 475 -1 334 -2 356 -27 475 -14 69 -27 130 -29 135 -1 6 -6 26 -10 45
-76 338 -258 794 -449 1125 -81 140 -280 442 -307 465 -3 3 -23 28 -44 55
-115 155 -398 452 -565 595 -35 30 -69 60 -75 65 -6 6 -38 32 -71 58 -78 61
-72 57 -130 100 -27 20 -54 40 -60 45 -34 27 -322 212 -331 212 -2 0 -27 14
-56 31 -120 72 -450 230 -469 225 -3 0 -12 4 -20 10 -16 13 -90 39 -101 36 -5
-1 -8 2 -8 7 0 5 -15 13 -32 17 -43 10 -39 9 -70 22 -31 13 -228 75 -243 77
-5 1 -17 4 -25 8 -15 6 -115 32 -160 41 -14 3 -56 12 -95 20 -84 19 -223 44
-285 51 -25 3 -61 7 -80 10 -45 6 -134 16 -185 21 -52 5 -572 13 -577 9z"/>
<path d="M4524 4879 c-8 -16 -21 -29 -28 -29 -7 0 -19 -7 -26 -15 -11 -13 -15
-13 -33 0 -17 12 -24 12 -46 0 -74 -38 -98 -105 -82 -225 6 -46 11 -109 11
-140 0 -31 5 -61 13 -69 6 -6 12 -35 12 -64 0 -45 3 -52 20 -52 31 -1 45 -14
45 -40 0 -13 19 -49 41 -80 42 -55 154 -155 175 -155 6 0 19 -9 30 -21 36 -39
64 -48 124 -37 30 5 66 7 80 4 133 -28 134 -28 213 4 42 16 91 30 110 30 38 0
56 23 36 46 -6 7 -8 18 -5 23 4 5 11 46 17 91 8 66 7 93 -6 142 -8 33 -15 70
-15 83 0 12 -8 26 -17 29 -12 5 -14 9 -5 18 22 22 14 55 -14 62 -14 4 -40 23
-58 43 -19 19 -42 44 -52 55 -28 30 -92 68 -113 68 -10 0 -30 9 -44 20 -14 11
-30 20 -35 20 -16 0 -49 51 -61 95 -11 38 -17 43 -99 82 -111 53 -165 56 -188
12z"/>
<path d="M5880 2761 c-25 -10 -67 -22 -95 -25 -75 -10 -123 -25 -187 -57 -32
-16 -68 -29 -81 -29 -13 0 -48 -18 -77 -40 -29 -22 -57 -40 -62 -40 -38 0 -43
-14 -46 -113 l-3 -94 45 -37 c25 -20 47 -44 50 -54 11 -31 66 -52 170 -64 130
-14 628 -13 726 2 41 6 98 14 125 17 31 4 63 16 83 31 18 14 47 26 65 27 18 1
49 9 70 19 47 21 133 107 141 141 5 18 13 25 31 25 32 0 34 34 4 51 -12 6 -49
39 -83 73 -68 69 -92 79 -194 76 -69 -2 -102 15 -102 52 0 12 -12 24 -35 34
-49 20 -81 18 -100 -8 -13 -19 -18 -21 -34 -11 -69 43 -327 58 -411 24z"/>
<path d="M2165 1100 c-3 -5 -2 -10 4 -10 5 0 13 5 16 10 3 6 2 10 -4 10 -5 0
-13 -4 -16 -10z"/>
<path d="M2427 439 c7 -7 15 -10 18 -7 3 3 -2 9 -12 12 -14 6 -15 5 -6 -5z"/>
</g>
</svg>
